<?xml version="1.0" encoding="utf-8" ?>
<svg viewBox="0 0 160 150" fill="none" xmlns="http://www.w3.org/2000/svg">
    <path fill-rule="evenodd" clip-rule="evenodd" d="M75.6038 76.1827L83.6034 76.1015C83.601 75.8681 83.5998 75.6343 83.5998 75.4C83.5998 75.1657 83.601 74.9319 83.6034 74.6985L75.6038 74.6173C75.6011 74.8778 75.5998 75.1386 75.5998 75.4C75.5998 75.6614 75.6011 75.9223 75.6038 76.1827ZM75.6482 72.6718L83.6431 72.9561C83.6598 72.4888 83.6811 72.0235 83.7071 71.5605L75.7197 71.1119C75.6906 71.6297 75.6668 72.1497 75.6482 72.6718ZM75.8542 69.1677L83.8273 69.8232C83.8653 69.3599 83.9081 68.8991 83.9554 68.4409L75.9978 67.6187C75.9447 68.1325 75.8968 68.6489 75.8542 69.1677ZM76.2239 65.6817L84.1569 66.7148C84.217 66.2536 84.2817 65.7954 84.351 65.3401L76.442 64.1365C76.3641 64.6486 76.2914 65.1637 76.2239 65.6817ZM76.7612 62.2153L84.6344 63.6341C84.7164 63.1789 84.803 62.727 84.8941 62.2786L77.0543 60.6857C76.9514 61.1922 76.8537 61.7021 76.7612 62.2153ZM77.4696 58.78L85.2612 60.5937C85.3658 60.1447 85.4748 59.6995 85.5883 59.2582L77.8404 57.2656C77.7116 57.7666 77.5879 58.2714 77.4696 58.78ZM78.3529 55.3871L86.039 57.6064C86.1661 57.166 86.2977 56.73 86.4336 56.2985L78.8032 53.895C78.6479 54.388 78.4978 54.8855 78.3529 55.3871ZM79.4176 52.0443L86.9702 54.6821C87.1204 54.2521 87.2749 53.8271 87.4335 53.4073L79.9502 50.5788C79.7675 51.0624 79.5899 51.5509 79.4176 52.0443ZM80.6683 48.7684L88.0554 51.8394C88.2284 51.4232 88.4056 51.0127 88.5868 50.608L81.285 47.3393C81.0742 47.8101 80.8686 48.2866 80.6683 48.7684ZM82.1125 45.5735L89.2958 49.0949C89.4926 48.6934 89.6934 48.2984 89.8979 47.91L82.8196 44.182C82.5787 44.6395 82.3429 45.1034 82.1125 45.5735ZM83.7596 42.4752L90.6927 46.4667C90.9123 46.0854 91.1355 45.7114 91.3621 45.3448L84.5575 41.1379C84.2864 41.5765 84.0204 42.0224 83.7596 42.4752ZM85.6153 39.5024L92.2417 43.9846C92.4841 43.6262 92.7297 43.2762 92.9784 42.9344L86.51 38.2271C86.2066 38.644 85.9083 39.0692 85.6153 39.5024ZM87.6917 36.6774L93.9408 41.6723C94.2056 41.341 94.4732 41.019 94.7432 40.7063L88.6892 35.4767C88.3515 35.8676 88.019 36.2679 87.6917 36.6774ZM89.9991 34.0345L95.7826 39.5618C96.0674 39.2638 96.3543 38.9761 96.643 38.6987L91.1 32.9302C90.728 33.2877 90.3609 33.6559 89.9991 34.0345ZM92.5419 31.62L97.751 37.6917C98.0533 37.4324 98.3569 37.1842 98.6615 36.9472L93.7483 30.6336C93.3412 30.9504 92.939 31.2793 92.5419 31.62ZM95.3226 29.4859L99.8262 36.0978C100.142 35.8825 100.459 35.679 100.776 35.4872L96.6333 28.6433C96.1916 28.9106 95.7547 29.1916 95.3226 29.4859ZM98.3343 27.6935L101.982 34.8135C102.307 34.6468 102.633 34.492 102.958 34.3491L99.7414 27.0244C99.2679 27.2324 98.7988 27.4555 98.3343 27.6935ZM101.554 26.3107L104.19 33.8638C104.521 33.7484 104.852 33.6448 105.183 33.5528L103.041 25.8449C102.541 25.9837 102.045 26.1391 101.554 26.3107ZM104.937 25.4018L106.43 33.2613C106.763 33.198 107.097 33.1462 107.432 33.1059L106.477 25.1631C105.96 25.2253 105.447 25.3049 104.937 25.4018ZM108.418 25.0134L108.692 33.0087C108.861 33.0029 109.03 33 109.2 33C109.37 33 109.539 33.0029 109.708 33.0087L109.981 25.0134C109.722 25.0045 109.461 25 109.2 25C108.939 25 108.678 25.0045 108.418 25.0134ZM111.923 25.1631L110.967 33.1059C111.303 33.1462 111.637 33.198 111.97 33.2613L113.463 25.4018C112.953 25.3049 112.439 25.2253 111.923 25.1631ZM115.359 25.8449L113.217 33.5528C113.548 33.6448 113.879 33.7484 114.209 33.8638L116.846 26.3107C116.354 26.1391 115.859 25.9837 115.359 25.8449ZM118.658 27.0244L115.441 34.3491C115.767 34.492 116.092 34.6468 116.418 34.8135L120.065 27.6935C119.601 27.4555 119.132 27.2324 118.658 27.0244ZM121.766 28.6433L117.624 35.4872C117.941 35.679 118.257 35.8825 118.573 36.0978L123.077 29.4859C122.645 29.1916 122.208 28.9106 121.766 28.6433ZM124.651 30.6336L119.738 36.9472C120.043 37.1842 120.346 37.4324 120.649 37.6917L125.858 31.6201C125.461 31.2793 125.058 30.9504 124.651 30.6336ZM127.3 32.9302L121.757 38.6987C122.045 38.9761 122.332 39.2638 122.617 39.5618L128.4 34.0345C128.039 33.6559 127.672 33.2877 127.3 32.9302ZM129.71 35.4767L123.656 40.7063C123.926 41.019 124.194 41.341 124.459 41.6723L130.708 36.6774C130.381 36.2679 130.048 35.8676 129.71 35.4767ZM131.89 38.2271L125.421 42.9344C125.67 43.2762 125.916 43.6262 126.158 43.9846L132.784 39.5024C132.491 39.0692 132.193 38.644 131.89 38.2271ZM133.842 41.1379L127.037 45.3448C127.264 45.7114 127.487 46.0854 127.707 46.4667L134.64 42.4752C134.379 42.0224 134.113 41.5765 133.842 41.1379ZM135.58 44.182L128.502 47.91C128.706 48.2984 128.907 48.6934 129.104 49.0949L136.287 45.5735C136.057 45.1034 135.821 44.6395 135.58 44.182ZM137.115 47.3393L129.813 50.608C129.994 51.0127 130.171 51.4232 130.344 51.8394L137.731 48.7684C137.531 48.2866 137.325 47.8101 137.115 47.3393ZM138.449 50.5788L130.966 53.4073C131.125 53.8271 131.279 54.2521 131.429 54.6821L138.982 52.0443C138.81 51.5509 138.632 51.0624 138.449 50.5788ZM139.596 53.895L131.966 56.2985C132.102 56.73 132.233 57.166 132.361 57.6064L140.047 55.3871C139.902 54.8855 139.752 54.388 139.596 53.895ZM140.559 57.2656L132.811 59.2582C132.925 59.6995 133.034 60.1447 133.138 60.5937L140.93 58.78C140.812 58.2714 140.688 57.7666 140.559 57.2656ZM141.345 60.6857L133.505 62.2786C133.597 62.727 133.683 63.1789 133.765 63.6341L141.638 62.2153C141.546 61.7021 141.448 61.1922 141.345 60.6857ZM141.958 64.1365L134.049 65.3401C134.118 65.7954 134.183 66.2536 134.243 66.7148L142.176 65.6817C142.108 65.1637 142.036 64.6486 141.958 64.1365ZM142.402 67.6187L134.444 68.4409C134.491 68.8991 134.534 69.3599 134.572 69.8232L142.545 69.1677C142.503 68.6489 142.455 68.1325 142.402 67.6187ZM142.68 71.1119L134.692 71.5605C134.718 72.0235 134.74 72.4888 134.756 72.9561L142.751 72.6718C142.733 72.1497 142.709 71.6297 142.68 71.1119ZM142.796 74.6173C142.798 74.8777 142.8 75.1386 142.8 75.4C142.8 75.6614 142.798 75.9223 142.796 76.1827L134.796 76.1015C134.799 75.8681 134.8 75.6343 134.8 75.4C134.8 75.1657 134.799 74.9319 134.796 74.6985L142.796 74.6173ZM142.751 78.1282L134.756 77.8439C134.74 78.3112 134.718 78.7765 134.692 79.2395L142.68 79.6881C142.709 79.1703 142.733 78.6503 142.751 78.1282ZM142.545 81.6323L134.572 80.9768C134.534 81.4401 134.491 81.9009 134.444 82.3591L142.402 83.1813C142.455 82.6675 142.503 82.1511 142.545 81.6323ZM142.176 85.1183L134.243 84.0852C134.183 84.5464 134.118 85.0046 134.049 85.4599L141.958 86.6635C142.036 86.1514 142.108 85.6363 142.176 85.1183ZM141.638 88.5847L133.765 87.1659C133.683 87.6211 133.597 88.073 133.505 88.5214L141.345 90.1143C141.448 89.6078 141.546 89.0979 141.638 88.5847ZM140.93 92.02L133.138 90.2063C133.034 90.6553 132.925 91.1005 132.811 91.5418L140.559 93.5344C140.688 93.0334 140.812 92.5286 140.93 92.02ZM140.047 95.4129L132.361 93.1936C132.233 93.634 132.102 94.07 131.966 94.5015L139.596 96.905C139.752 96.412 139.902 95.9145 140.047 95.4129ZM138.982 98.7557L131.429 96.1179C131.279 96.5479 131.125 96.9729 130.966 97.3927L138.449 100.221C138.632 99.7376 138.81 99.2491 138.982 98.7557ZM137.731 102.032L130.344 98.9606C130.171 99.3768 129.994 99.7873 129.813 100.192L137.115 103.461C137.325 102.99 137.531 102.513 137.731 102.032ZM136.287 105.226L129.104 101.705C128.907 102.107 128.706 102.502 128.502 102.89L135.58 106.618C135.821 106.16 136.057 105.697 136.287 105.226ZM134.64 108.325L127.707 104.333C127.487 104.715 127.264 105.089 127.037 105.455L133.842 109.662C134.113 109.223 134.379 108.778 134.64 108.325ZM132.784 111.298L126.158 106.815C125.916 107.174 125.67 107.524 125.421 107.866L131.89 112.573C132.193 112.156 132.491 111.731 132.784 111.298ZM130.708 114.123L124.459 109.128C124.194 109.459 123.926 109.781 123.656 110.094L129.71 115.323C130.048 114.932 130.381 114.532 130.708 114.123ZM128.4 116.766L122.617 111.238C122.332 111.536 122.045 111.824 121.757 112.101L127.3 117.87C127.672 117.512 128.039 117.144 128.4 116.766ZM125.858 119.18L120.649 113.108C120.346 113.368 120.043 113.616 119.738 113.853L124.651 120.166C125.058 119.85 125.461 119.521 125.858 119.18ZM123.077 121.314L118.573 114.702C118.257 114.917 117.941 115.121 117.624 115.313L121.766 122.157C122.208 121.889 122.645 121.608 123.077 121.314ZM120.065 123.106L116.418 115.986C116.092 116.153 115.767 116.308 115.441 116.451L118.658 123.776C119.132 123.568 119.601 123.344 120.065 123.106ZM116.846 124.489L114.209 116.936C113.879 117.052 113.548 117.155 113.217 117.247L115.359 124.955C115.859 124.816 116.354 124.661 116.846 124.489ZM113.463 125.398L111.97 117.539C111.637 117.602 111.303 117.654 110.967 117.694L111.923 125.637C112.439 125.575 112.953 125.495 113.463 125.398ZM109.981 125.787L109.708 117.791C109.539 117.797 109.37 117.8 109.2 117.8C109.03 117.8 108.861 117.797 108.692 117.791L108.418 125.787C108.678 125.796 108.939 125.8 109.2 125.8C109.461 125.8 109.722 125.796 109.981 125.787ZM106.477 125.637L107.432 117.694C107.097 117.654 106.763 117.602 106.43 117.539L104.937 125.398C105.447 125.495 105.96 125.575 106.477 125.637ZM103.041 124.955L105.183 117.247C104.852 117.155 104.521 117.052 104.19 116.936L101.554 124.489C102.045 124.661 102.541 124.816 103.041 124.955ZM99.7414 123.776L102.958 116.451C102.633 116.308 102.307 116.153 101.982 115.986L98.3343 123.106C98.7988 123.344 99.2679 123.568 99.7414 123.776ZM96.6333 122.157L100.776 115.313C100.459 115.121 100.142 114.917 99.8262 114.702L95.3226 121.314C95.7547 121.608 96.1917 121.889 96.6333 122.157ZM93.7483 120.166L98.6615 113.853C98.3569 113.616 98.0533 113.368 97.751 113.108L92.5419 119.18C92.939 119.521 93.3412 119.85 93.7483 120.166ZM91.1 117.87L96.643 112.101C96.3543 111.824 96.0674 111.536 95.7826 111.238L89.9991 116.766C90.3609 117.144 90.728 117.512 91.1 117.87ZM88.6892 115.323L94.7432 110.094C94.4732 109.781 94.2056 109.459 93.9408 109.128L87.6917 114.123C88.019 114.532 88.3515 114.932 88.6892 115.323ZM86.51 112.573L92.9784 107.866C92.7297 107.524 92.4841 107.174 92.2417 106.815L85.6153 111.298C85.9083 111.731 86.2066 112.156 86.51 112.573ZM84.5575 109.662L91.3621 105.455C91.1355 105.089 90.9123 104.715 90.6927 104.333L83.7596 108.325C84.0204 108.778 84.2864 109.223 84.5575 109.662ZM82.8196 106.618L89.8979 102.89C89.6934 102.502 89.4926 102.107 89.2958 101.705L82.1125 105.226C82.3429 105.697 82.5787 106.16 82.8196 106.618ZM81.285 103.461L88.5867 100.192C88.4056 99.7873 88.2284 99.3768 88.0554 98.9606L80.6683 102.032C80.8686 102.513 81.0742 102.99 81.285 103.461ZM79.9502 100.221C79.7675 99.7376 79.5899 99.2491 79.4176 98.7557L86.9702 96.1179C87.1204 96.5479 87.2749 96.9729 87.4335 97.3927L79.9502 100.221ZM78.8032 96.905L86.4336 94.5015C86.2977 94.07 86.1661 93.634 86.039 93.1936L78.3529 95.4129C78.4978 95.9145 78.6479 96.412 78.8032 96.905ZM77.8404 93.5344L85.5883 91.5418C85.4748 91.1005 85.3658 90.6553 85.2612 90.2063L77.4696 92.02C77.5879 92.5286 77.7116 93.0334 77.8404 93.5344ZM77.0543 90.1143L84.8941 88.5214C84.803 88.073 84.7164 87.6211 84.6344 87.1659L76.7612 88.5847C76.8537 89.0979 76.9514 89.6078 77.0543 90.1143ZM76.442 86.6635L84.351 85.4599C84.2817 85.0046 84.217 84.5464 84.1569 84.0852L76.2239 85.1184C76.2914 85.6363 76.3641 86.1514 76.442 86.6635ZM75.9978 83.1813L83.9554 82.3591C83.9081 81.9009 83.8653 81.4401 83.8273 80.9768L75.8542 81.6323C75.8968 82.1511 75.9447 82.6675 75.9978 83.1813ZM75.7197 79.6881L83.7071 79.2395C83.6811 78.7765 83.6598 78.3112 83.6431 77.8439L75.6482 78.1282C75.6668 78.6503 75.6906 79.1703 75.7197 79.6881Z" fill="url(#paint0_linear)"/>
    <path fill-rule="evenodd" clip-rule="evenodd" d="M83.0002 53.7223C78.9523 59.211 76.4002 66.87 76.4002 75.4C76.4002 83.9301 78.9523 91.5891 83.0002 97.0778C87.0485 102.567 92.5114 105.8 98.4002 105.8C104.289 105.8 109.752 102.567 113.8 97.0778C117.848 91.5891 120.4 83.9301 120.4 75.4C120.4 66.87 117.848 59.211 113.8 53.7223C109.752 48.2331 104.289 45 98.4002 45C92.5114 45 87.0485 48.2331 83.0002 53.7223ZM80.4248 51.823C84.918 45.7305 91.255 41.8 98.4002 41.8C105.545 41.8 111.882 45.7305 116.376 51.823C120.869 57.916 123.6 66.257 123.6 75.4C123.6 84.5431 120.869 92.8841 116.376 98.9771C111.882 105.07 105.545 109 98.4002 109C91.255 109 84.918 105.07 80.4248 98.9771C75.9312 92.8841 73.2002 84.5431 73.2002 75.4C73.2002 66.257 75.9312 57.916 80.4248 51.823Z" fill="url(#paint1_linear)"/>
    <path fill-rule="evenodd" clip-rule="evenodd" d="M47.581 53.7011C43.6695 59.191 41.2 66.8576 41.2 75.4C41.2 83.9425 43.6695 91.6091 47.581 97.099C51.495 102.592 56.7566 105.8 62.4 105.8C68.0434 105.8 73.305 102.592 77.219 97.099C81.1305 91.6091 83.6 83.9425 83.6 75.4C83.6 66.8576 81.1305 59.191 77.219 53.7011C73.305 48.2079 68.0434 45 62.4 45C56.7566 45 51.495 48.2079 47.581 53.7011ZM44.9749 51.8442C49.313 45.7557 55.4513 41.8 62.4 41.8C69.3487 41.8 75.487 45.7557 79.8251 51.8442C84.1655 57.936 86.8 66.2693 86.8 75.4C86.8 84.5308 84.1655 92.8641 79.8251 98.9559C75.487 105.044 69.3487 109 62.4 109C55.4513 109 49.313 105.044 44.9749 98.9559C40.6345 92.8641 38 84.5308 38 75.4C38 66.2693 40.6345 57.936 44.9749 51.8442Z" fill="url(#paint2_linear)"/>
    <path fill-rule="evenodd" clip-rule="evenodd" d="M85.196 76.1827L77.1964 76.1015C77.1988 75.8681 77.2 75.6343 77.2 75.4C77.2 75.1657 77.1988 74.9319 77.1964 74.6985L85.196 74.6173C85.1987 74.8778 85.2 75.1386 85.2 75.4C85.2 75.6614 85.1987 75.9223 85.196 76.1827ZM85.1516 72.6718L77.1567 72.9561C77.14 72.4888 77.1187 72.0235 77.0927 71.5605L85.0801 71.1119C85.1092 71.6297 85.133 72.1497 85.1516 72.6718ZM84.9456 69.1677C84.903 68.6489 84.8551 68.1325 84.802 67.6187L76.8443 68.4409C76.8917 68.8991 76.9345 69.3599 76.9725 69.8232L84.9456 69.1677ZM84.5759 65.6817L76.6429 66.7148C76.5828 66.2536 76.5181 65.7954 76.4488 65.3401L84.3578 64.1365C84.4357 64.6486 84.5084 65.1637 84.5759 65.6817ZM84.0386 62.2153L76.1654 63.6341C76.0834 63.1789 75.9968 62.727 75.9057 62.2786L83.7455 60.6857C83.8484 61.1922 83.9461 61.7021 84.0386 62.2153ZM83.3302 58.78L75.5386 60.5937C75.434 60.1447 75.325 59.6995 75.2115 59.2582L82.9594 57.2656C83.0882 57.7666 83.2119 58.2714 83.3302 58.78ZM82.4469 55.3871L74.7608 57.6064C74.6337 57.166 74.5021 56.73 74.3662 56.2985L81.9966 53.895C82.1519 54.388 82.302 54.8855 82.4469 55.3871ZM81.3822 52.0443L73.8296 54.6821C73.6794 54.2521 73.5249 53.8271 73.3663 53.4073L80.8496 50.5789C81.0323 51.0624 81.2099 51.5509 81.3822 52.0443ZM80.1315 48.7684L72.7444 51.8394C72.5714 51.4232 72.3942 51.0127 72.2131 50.608L79.5148 47.3393C79.7256 47.8101 79.9312 48.2866 80.1315 48.7684ZM78.6873 45.5735L71.504 49.0949C71.3072 48.6934 71.1064 48.2984 70.9019 47.91L77.9802 44.182C78.2211 44.6395 78.4569 45.1034 78.6873 45.5735ZM77.0402 42.4752L70.1071 46.4667C69.8875 46.0854 69.6643 45.7114 69.4377 45.3448L76.2423 41.1379C76.5134 41.5765 76.7794 42.0224 77.0402 42.4752ZM75.1846 39.5024L68.5581 43.9846C68.3157 43.6263 68.0701 43.2762 67.8214 42.9344L74.2898 38.2271C74.5933 38.644 74.8915 39.0692 75.1846 39.5024ZM73.1081 36.6774L66.859 41.6723C66.5942 41.341 66.3266 41.019 66.0566 40.7063L72.1106 35.4767C72.4483 35.8676 72.7808 36.2679 73.1081 36.6774ZM70.8007 34.0345L65.0172 39.5618C64.7324 39.2638 64.4455 38.9761 64.1568 38.6987L69.6998 32.9302C70.0718 33.2877 70.4389 33.6559 70.8007 34.0345ZM68.2579 31.6201L63.0488 37.6917C62.7465 37.4324 62.443 37.1842 62.1383 36.9472L67.0515 30.6336C67.4586 30.9504 67.8608 31.2793 68.2579 31.6201ZM65.4772 29.4859L60.9736 36.0978C60.6576 35.8825 60.3409 35.679 60.0239 35.4872L64.1665 28.6433C64.6082 28.9106 65.0451 29.1916 65.4772 29.4859ZM62.4656 27.6935L58.8178 34.8135C58.4924 34.6468 58.1669 34.492 57.8414 34.3491L61.0584 27.0244C61.5319 27.2324 62.001 27.4555 62.4656 27.6935ZM59.246 26.3107L56.6094 33.8638C56.2789 33.7484 55.9481 33.6448 55.6172 33.5528L57.7592 25.8449C58.2587 25.9837 58.7544 26.1391 59.246 26.3107ZM55.8627 25.4018C55.353 25.3049 54.8397 25.2253 54.3231 25.1631L53.3676 33.1059C53.703 33.1462 54.0371 33.198 54.3701 33.2613L55.8627 25.4018ZM52.3815 25.0134L52.1078 33.0087C51.9392 33.0029 51.7699 33 51.6 33C51.4301 33 51.2608 33.0029 51.0922 33.0087L50.8185 25.0134C51.0783 25.0045 51.3388 25 51.6 25C51.8612 25 52.1217 25.0045 52.3815 25.0134ZM48.8769 25.1631L49.8324 33.1059C49.497 33.1462 49.1629 33.198 48.8299 33.2613L47.3373 25.4018C47.847 25.3049 48.3603 25.2253 48.8769 25.1631ZM45.4408 25.8449L47.5828 33.5528C47.2519 33.6448 46.9211 33.7484 46.5906 33.8638L43.954 26.3107C44.4456 26.1391 44.9413 25.9837 45.4408 25.8449ZM42.1416 27.0244L45.3586 34.3491C45.0331 34.492 44.7076 34.6468 44.3822 34.8135L40.7344 27.6935C41.199 27.4555 41.6681 27.2324 42.1416 27.0244ZM39.0335 28.6433L43.1761 35.4872C42.8591 35.679 42.5424 35.8825 42.2264 36.0978L37.7228 29.4859C38.1549 29.1916 38.5918 28.9106 39.0335 28.6433ZM36.1485 30.6336L41.0617 36.9472C40.757 37.1842 40.4535 37.4324 40.1512 37.6917L34.9421 31.6201C35.3392 31.2793 35.7414 30.9504 36.1485 30.6336ZM33.5002 32.9302L39.0432 38.6987C38.7545 38.9761 38.4676 39.2638 38.1828 39.5618L32.3993 34.0345C32.7611 33.6559 33.1282 33.2877 33.5002 32.9302ZM31.0894 35.4767L37.1434 40.7063C36.8734 41.019 36.6058 41.341 36.341 41.6723L30.0919 36.6774C30.4192 36.2679 30.7517 35.8676 31.0894 35.4767ZM28.9102 38.2271L35.3786 42.9344C35.1299 43.2762 34.8843 43.6262 34.6419 43.9846L28.0154 39.5024C28.3085 39.0692 28.6067 38.644 28.9102 38.2271ZM26.9577 41.1379L33.7623 45.3448C33.5357 45.7114 33.3125 46.0854 33.0929 46.4667L26.1598 42.4752C26.4206 42.0224 26.6866 41.5765 26.9577 41.1379ZM25.2198 44.182L32.2981 47.91C32.0936 48.2984 31.8928 48.6934 31.696 49.0949L24.5127 45.5735C24.7431 45.1034 24.9789 44.6395 25.2198 44.182ZM23.6852 47.3393L30.9869 50.608C30.8058 51.0127 30.6286 51.4232 30.4556 51.8394L23.0685 48.7684C23.2688 48.2866 23.4744 47.8101 23.6852 47.3393ZM22.3504 50.5788L29.8337 53.4073C29.6751 53.8271 29.5206 54.2521 29.3704 54.6821L21.8178 52.0443C21.9901 51.5509 22.1677 51.0624 22.3504 50.5788ZM21.2034 53.895L28.8338 56.2985C28.6979 56.73 28.5663 57.166 28.4392 57.6064L20.7531 55.3871C20.898 54.8855 21.0481 54.388 21.2034 53.895ZM20.2406 57.2656L27.9885 59.2582C27.875 59.6995 27.766 60.1447 27.6614 60.5937L19.8698 58.78C19.9881 58.2714 20.1118 57.7666 20.2406 57.2656ZM19.4545 60.6857L27.2943 62.2786C27.2032 62.727 27.1166 63.1789 27.0346 63.6341L19.1614 62.2153C19.2539 61.7021 19.3516 61.1922 19.4545 60.6857ZM18.8422 64.1365L26.7512 65.3401C26.6819 65.7954 26.6172 66.2536 26.5571 66.7148L18.6241 65.6817C18.6916 65.1637 18.7643 64.6486 18.8422 64.1365ZM18.398 67.6187L26.3556 68.4409C26.3083 68.8991 26.2655 69.3599 26.2275 69.8232L18.2544 69.1677C18.297 68.6489 18.3449 68.1325 18.398 67.6187ZM18.1199 71.1119L26.1073 71.5605C26.0813 72.0235 26.06 72.4888 26.0433 72.9561L18.0484 72.6718C18.067 72.1497 18.0908 71.6297 18.1199 71.1119ZM18.004 74.6173C18.0013 74.8777 18 75.1386 18 75.4C18 75.6614 18.0013 75.9223 18.004 76.1827L26.0036 76.1015C26.0012 75.8681 26 75.6343 26 75.4C26 75.1657 26.0012 74.9319 26.0036 74.6985L18.004 74.6173ZM18.0484 78.1282L26.0433 77.8439C26.06 78.3112 26.0813 78.7765 26.1073 79.2395L18.1199 79.6881C18.0908 79.1703 18.067 78.6503 18.0484 78.1282ZM18.2544 81.6323L26.2275 80.9768C26.2655 81.4401 26.3083 81.9009 26.3556 82.3591L18.398 83.1813C18.3449 82.6675 18.297 82.1511 18.2544 81.6323ZM18.6241 85.1183L26.5571 84.0852C26.6172 84.5464 26.6819 85.0046 26.7512 85.4599L18.8422 86.6635C18.7643 86.1514 18.6916 85.6363 18.6241 85.1183ZM19.1614 88.5847L27.0346 87.1659C27.1166 87.6211 27.2032 88.073 27.2943 88.5214L19.4545 90.1143C19.3516 89.6078 19.2539 89.0979 19.1614 88.5847ZM19.8698 92.02L27.6614 90.2063C27.766 90.6553 27.875 91.1005 27.9885 91.5418L20.2406 93.5344C20.1118 93.0334 19.9881 92.5286 19.8698 92.02ZM20.7531 95.4129L28.4392 93.1936C28.5663 93.634 28.6979 94.07 28.8338 94.5015L21.2034 96.905C21.0481 96.412 20.898 95.9145 20.7531 95.4129ZM21.8178 98.7557L29.3704 96.1179C29.5206 96.5479 29.6751 96.9729 29.8337 97.3927L22.3504 100.221C22.1677 99.7376 21.9901 99.2491 21.8178 98.7557ZM23.0685 102.032L30.4556 98.9606C30.6286 99.3768 30.8058 99.7873 30.9869 100.192L23.6852 103.461C23.4744 102.99 23.2688 102.513 23.0685 102.032ZM24.5127 105.226L31.696 101.705C31.8928 102.107 32.0936 102.502 32.2981 102.89L25.2198 106.618C24.9789 106.16 24.7431 105.697 24.5127 105.226ZM26.1598 108.325L33.0929 104.333C33.3125 104.715 33.5357 105.089 33.7623 105.455L26.9577 109.662C26.6866 109.223 26.4206 108.778 26.1598 108.325ZM28.0154 111.298L34.6419 106.815C34.8843 107.174 35.1299 107.524 35.3786 107.866L28.9102 112.573C28.6067 112.156 28.3085 111.731 28.0154 111.298ZM30.0919 114.123L36.341 109.128C36.6058 109.459 36.8734 109.781 37.1434 110.094L31.0894 115.323C30.7517 114.932 30.4192 114.532 30.0919 114.123ZM32.3993 116.766L38.1828 111.238C38.4676 111.536 38.7545 111.824 39.0432 112.101L33.5002 117.87C33.1282 117.512 32.7611 117.144 32.3993 116.766ZM34.9421 119.18L40.1512 113.108C40.4535 113.368 40.757 113.616 41.0617 113.853L36.1485 120.166C35.7414 119.85 35.3392 119.521 34.9421 119.18ZM37.7228 121.314L42.2264 114.702C42.5424 114.917 42.8591 115.121 43.1761 115.313L39.0335 122.157C38.5918 121.889 38.1549 121.608 37.7228 121.314ZM40.7344 123.106L44.3822 115.986C44.7076 116.153 45.0331 116.308 45.3586 116.451L42.1416 123.776C41.6681 123.568 41.199 123.344 40.7344 123.106ZM43.954 124.489L46.5906 116.936C46.9211 117.052 47.2519 117.155 47.5828 117.247L45.4408 124.955C44.9412 124.816 44.4455 124.661 43.954 124.489ZM47.3373 125.398L48.8299 117.539C49.1629 117.602 49.497 117.654 49.8324 117.694L48.8769 125.637C48.3603 125.575 47.847 125.495 47.3373 125.398ZM50.8185 125.787L51.0922 117.791C51.2608 117.797 51.4301 117.8 51.6 117.8C51.7699 117.8 51.9392 117.797 52.1078 117.791L52.3815 125.787C52.1217 125.796 51.8612 125.8 51.6 125.8C51.3388 125.8 51.0783 125.796 50.8185 125.787ZM54.3231 125.637L53.3676 117.694C53.7029 117.654 54.0371 117.602 54.3701 117.539L55.8627 125.398C55.353 125.495 54.8397 125.575 54.3231 125.637ZM57.7592 124.955L55.6172 117.247C55.9481 117.155 56.2789 117.052 56.6094 116.936L59.246 124.489C58.7544 124.661 58.2587 124.816 57.7592 124.955ZM61.0584 123.776L57.8414 116.451C58.1669 116.308 58.4924 116.153 58.8178 115.986L62.4655 123.106C62.001 123.344 61.5319 123.568 61.0584 123.776ZM64.1665 122.157L60.0239 115.313C60.3409 115.121 60.6576 114.917 60.9736 114.702L65.4772 121.314C65.0451 121.608 64.6082 121.889 64.1665 122.157ZM67.0515 120.166L62.1383 113.853C62.443 113.616 62.7465 113.368 63.0488 113.108L68.2579 119.18C67.8608 119.521 67.4586 119.85 67.0515 120.166ZM69.6998 117.87L64.1568 112.101C64.4455 111.824 64.7324 111.536 65.0172 111.238L70.8007 116.766C70.4389 117.144 70.0718 117.512 69.6998 117.87ZM72.1106 115.323L66.0566 110.094C66.3266 109.781 66.5942 109.459 66.859 109.128L73.1081 114.123C72.7808 114.532 72.4483 114.932 72.1106 115.323ZM74.2898 112.573L67.8214 107.866C68.0701 107.524 68.3157 107.174 68.5581 106.815L75.1845 111.298C74.8915 111.731 74.5933 112.156 74.2898 112.573ZM76.2423 109.662L69.4377 105.455C69.6643 105.089 69.8875 104.715 70.1071 104.333L77.0402 108.325C76.7794 108.778 76.5134 109.223 76.2423 109.662ZM77.9802 106.618L70.9019 102.89C71.1064 102.502 71.3072 102.107 71.504 101.705L78.6873 105.226C78.4569 105.697 78.2211 106.16 77.9802 106.618ZM79.5148 103.461L72.2131 100.192C72.3942 99.7873 72.5714 99.3768 72.7444 98.9606L80.1315 102.032C79.9312 102.513 79.7256 102.99 79.5148 103.461ZM80.8496 100.221L73.3663 97.3927C73.5249 96.9729 73.6794 96.5479 73.8296 96.1179L81.3822 98.7557C81.2099 99.2491 81.0323 99.7376 80.8496 100.221ZM81.9966 96.905L74.3662 94.5015C74.5021 94.07 74.6337 93.634 74.7608 93.1936L82.4469 95.4129C82.302 95.9145 82.1519 96.412 81.9966 96.905ZM82.9594 93.5344L75.2115 91.5418C75.325 91.1005 75.434 90.6553 75.5386 90.2063L83.3302 92.02C83.2119 92.5286 83.0882 93.0334 82.9594 93.5344ZM83.7455 90.1143L75.9057 88.5214C75.9968 88.073 76.0834 87.6211 76.1654 87.1659L84.0386 88.5847C83.9461 89.0979 83.8484 89.6078 83.7455 90.1143ZM84.3578 86.6635L76.4488 85.4599C76.5181 85.0046 76.5828 84.5464 76.6429 84.0852L84.5759 85.1184C84.5084 85.6363 84.4357 86.1514 84.3578 86.6635ZM84.802 83.1813L76.8443 82.3591C76.8917 81.9009 76.9345 81.4401 76.9725 80.9768L84.9456 81.6323C84.903 82.1511 84.8551 82.6675 84.802 83.1813ZM85.0801 79.6881L77.0927 79.2395C77.1187 78.7765 77.14 78.3112 77.1567 77.8439L85.1516 78.1282C85.133 78.6503 85.1092 79.1703 85.0801 79.6881Z" fill="url(#paint3_linear)"/>
    <path d="M80.4002 102.6C95.4223 102.6 107.6 90.4221 107.6 75.4C107.6 60.3778 95.4223 48.2 80.4002 48.2C65.3781 48.2 53.2002 60.3778 53.2002 75.4C53.2002 90.4221 65.3781 102.6 80.4002 102.6Z" fill="url(#paint4_linear)"/>
    <defs>
        <linearGradient id="paint0_linear" x1="120.523" y1="46.5486" x2="118.601" y2="107.028" gradientUnits="userSpaceOnUse">
            <stop stop-color="#9681F7"/>
            <stop offset="1" stop-color="#664ED9"/>
        </linearGradient>
        <linearGradient id="paint1_linear" x1="88.3347" y1="57.0817" x2="89.7302" y2="95.4798" gradientUnits="userSpaceOnUse">
            <stop stop-color="#9681F7"/>
            <stop offset="1" stop-color="#664ED9"/>
        </linearGradient>
        <linearGradient id="paint2_linear" x1="53.2833" y1="57.0817" x2="54.6375" y2="95.4794" gradientUnits="userSpaceOnUse">
            <stop stop-color="#9681F7"/>
            <stop offset="1" stop-color="#664ED9"/>
        </linearGradient>
        <linearGradient id="paint3_linear" x1="40.2771" y1="46.5486" x2="42.1984" y2="107.028" gradientUnits="userSpaceOnUse">
            <stop stop-color="#9681F7"/>
            <stop offset="1" stop-color="#664ED9"/>
        </linearGradient>
        <linearGradient id="paint4_linear" x1="59.7763" y1="59.8293" x2="61.3325" y2="92.4874" gradientUnits="userSpaceOnUse">
            <stop stop-color="#9681F7"/>
            <stop offset="1" stop-color="#664ED9"/>
        </linearGradient>
    </defs>
</svg>
