<svg width="480" height="388" viewBox="0 0 480 388" fill="none" xmlns="http://www.w3.org/2000/svg">
<path fill-rule="evenodd" clip-rule="evenodd" d="M221.558 197.022L252.325 196.67C252.314 195.772 252.309 194.873 252.308 193.972C252.306 193.071 252.31 192.172 252.318 191.274L221.55 191.001C221.541 192.003 221.537 193.006 221.538 194.011C221.539 195.017 221.546 196.02 221.558 197.022ZM221.711 183.518L252.462 184.572C252.524 182.775 252.604 180.985 252.701 179.204L221.978 177.518C221.869 179.51 221.78 181.51 221.711 183.518ZM222.486 170.04L253.155 172.522C253.299 170.74 253.461 168.967 253.641 167.204L223.031 164.082C222.829 166.058 222.648 168.044 222.486 170.04ZM223.891 156.63L254.408 160.565C254.636 158.791 254.883 157.028 255.147 155.277L224.722 150.686C224.425 152.656 224.148 154.638 223.891 156.63ZM225.94 143.295L256.229 148.714C256.542 146.962 256.873 145.224 257.221 143.499L227.06 137.411C226.667 139.359 226.293 141.321 225.94 143.295ZM228.648 130.079L258.625 137.017C259.024 135.289 259.442 133.576 259.876 131.879L230.067 124.253C229.574 126.18 229.101 128.122 228.648 130.079ZM232.029 117.025L261.601 125.523C262.088 123.829 262.592 122.151 263.113 120.491L233.753 111.284C233.158 113.181 232.584 115.095 232.029 117.025ZM236.107 104.163L265.169 114.271C265.744 112.617 266.336 110.982 266.944 109.366L238.149 98.5239C237.448 100.385 236.768 102.265 236.107 104.163ZM240.901 91.5574L269.328 103.333C269.992 101.731 270.671 100.151 271.366 98.5935L243.266 86.0578C242.458 87.8697 241.669 89.7032 240.901 91.5574ZM246.44 79.2624L274.086 92.7705C274.841 91.2255 275.611 89.7051 276.396 88.2101L249.153 73.907C248.229 75.6678 247.324 77.4528 246.44 79.2624ZM252.76 67.3378L279.446 82.6555C280.288 81.1878 281.145 79.7482 282.015 78.337L255.823 62.1901C254.782 63.8785 253.761 65.5947 252.76 67.3378ZM259.883 55.8943L285.391 73.1012C286.321 71.7216 287.264 70.3739 288.219 69.0585L263.318 50.9851C262.153 52.5901 261.008 54.227 259.883 55.8943ZM267.855 45.0189L291.914 64.1993C292.931 62.9235 293.959 61.6839 294.996 60.4801L271.686 40.3962C270.389 41.9012 269.112 43.4424 267.855 45.0189ZM276.717 34.8425L298.988 56.0732C300.082 54.9255 301.184 53.8174 302.293 52.7493L280.946 30.5899C279.516 31.9667 278.106 33.3846 276.717 34.8425ZM286.484 25.5438L306.55 48.8705C307.711 47.8716 308.877 46.9158 310.048 46.0024L291.12 21.7437C289.556 22.9642 288.011 24.2313 286.484 25.5438ZM297.169 17.3217L314.523 42.7301C315.738 41.9005 316.955 41.1162 318.173 40.3766L302.206 14.0745C300.509 15.1048 298.829 16.1876 297.169 17.3217ZM308.744 10.4133L322.808 37.7797C324.059 37.137 325.311 36.5401 326.561 35.9889L314.153 7.83288C312.333 8.635 310.529 9.49561 308.744 10.4133ZM321.12 5.07888L331.298 34.1161C332.568 33.6707 333.84 33.2706 335.112 32.9152L326.836 3.27996C324.915 3.81638 323.009 4.4165 321.12 5.07888ZM334.128 1.56625L339.908 31.7878C341.188 31.543 342.473 31.342 343.763 31.1851L340.048 0.640876C338.062 0.882449 336.088 1.19141 334.128 1.56625ZM347.515 0.0553221L348.608 30.8052C349.256 30.7821 349.907 30.7701 350.56 30.7693C351.214 30.7684 351.865 30.7788 352.513 30.8002L353.527 0.0476298C352.528 0.0146991 351.526 -0.00121263 350.521 7.19826e-05C349.516 0.0013566 348.514 0.0198336 347.515 0.0553221ZM360.995 0.614072L357.359 31.1677C358.649 31.3212 359.935 31.519 361.216 31.7605L366.918 1.52429C364.957 1.15447 362.983 0.850557 360.995 0.614072ZM374.214 3.21935L366.014 32.8757C367.287 33.2278 368.56 33.6247 369.832 34.0668L379.935 5.00365C378.044 4.34611 376.136 3.75081 374.214 3.21935ZM386.908 7.73981L374.573 35.9275C375.825 36.4755 377.078 37.0693 378.33 37.7089L392.324 10.3063C390.535 9.39323 388.731 8.53727 386.908 7.73981ZM398.87 13.9508L382.973 40.2939C384.193 41.0301 385.412 41.8112 386.628 42.6378L403.916 17.1851C402.254 16.0553 400.57 14.9767 398.87 13.9508ZM409.978 21.5917L391.112 45.8989C392.285 46.8089 393.454 47.762 394.616 48.7578L414.624 25.3798C413.093 24.0712 411.543 22.8081 409.978 21.5917ZM420.174 30.4118L398.885 52.6255C399.997 53.6912 401.101 54.7962 402.197 55.9408L424.416 34.6536C423.02 33.1992 421.608 31.7849 420.174 30.4118ZM429.458 40.1943L406.201 60.3378C407.239 61.5389 408.27 62.7762 409.293 64.0489L433.301 44.8074C432.043 43.2339 430.758 41.6958 429.458 40.1943ZM437.854 50.7616L413.001 68.8989C413.958 70.212 414.904 71.557 415.839 72.9343L441.301 55.6624C440.174 53.9978 439.024 52.3639 437.854 50.7616ZM445.378 61.9478L419.228 78.1612C420.101 79.5701 420.962 81.0078 421.808 82.4732L448.454 67.0874C447.447 65.3466 446.424 63.6332 445.378 61.9478ZM452.078 73.6474L424.87 88.0205C425.662 89.5132 426.435 91.0312 427.193 92.5747L454.804 78.9955C453.916 77.1885 453.008 75.4055 452.078 73.6474ZM457.997 85.7832L429.928 98.3908C430.628 99.9466 431.312 101.525 431.978 103.125L460.374 91.2766C459.601 89.4243 458.808 87.5928 457.997 85.7832ZM463.147 98.2362L434.378 109.152C434.989 110.766 435.585 112.399 436.166 114.052L465.201 103.87C464.535 101.973 463.851 100.095 463.147 98.2362ZM467.574 110.985L438.235 120.267C438.762 121.926 439.27 123.602 439.762 125.295L469.312 116.722C468.754 114.793 468.174 112.88 467.574 110.985ZM471.293 123.944L441.504 131.646C441.943 133.343 442.362 135.054 442.766 136.781L472.728 129.767C472.27 127.811 471.789 125.87 471.293 123.944ZM474.331 137.094L444.189 143.259C444.539 144.984 444.878 146.721 445.193 148.472L475.466 142.976C475.108 141.003 474.731 139.042 474.331 137.094ZM476.704 150.364L446.293 155.032C446.562 156.782 446.812 158.545 447.047 160.318L477.551 156.305C477.289 154.314 477.008 152.333 476.704 150.364ZM478.431 163.755L447.828 166.956C448.012 168.718 448.178 170.49 448.328 172.272L478.989 169.712C478.824 167.716 478.639 165.73 478.431 163.755ZM479.516 177.189L448.801 178.954C448.901 180.734 448.985 182.524 449.051 184.321L479.801 183.188C479.728 181.18 479.631 179.18 479.516 177.189ZM479.981 190.67C479.993 191.672 479.997 192.675 480.001 193.681C480.001 194.686 479.997 195.689 479.989 196.691L449.22 196.418C449.228 195.52 449.231 194.621 449.231 193.72C449.228 192.819 449.224 191.92 449.212 191.022L479.981 190.67ZM479.828 204.174L449.078 203.12C449.016 204.917 448.935 206.707 448.835 208.488L479.558 210.174C479.67 208.182 479.758 206.182 479.828 204.174ZM479.051 217.652L448.381 215.17C448.239 216.952 448.078 218.725 447.897 220.488L478.508 223.611C478.708 221.634 478.889 219.648 479.051 217.652ZM477.647 231.062L447.131 227.127C446.901 228.902 446.654 230.664 446.389 232.415L476.816 237.006C477.112 235.036 477.389 233.054 477.647 231.062ZM475.597 244.397L445.308 238.979C444.997 240.73 444.666 242.468 444.316 244.194L474.478 250.282C474.87 248.333 475.243 246.371 475.597 244.397ZM472.889 257.613L442.912 250.675C442.512 252.403 442.097 254.116 441.662 255.814L471.47 263.439C471.966 261.512 472.439 259.57 472.889 257.613ZM469.508 270.667L439.935 262.169C439.451 263.864 438.947 265.541 438.424 267.201L467.785 276.408C468.381 274.511 468.954 272.597 469.508 270.667ZM465.431 283.529L436.37 273.421C435.793 275.075 435.201 276.71 434.593 278.326L463.389 289.168C464.089 287.307 464.77 285.427 465.431 283.529ZM460.635 296.135L432.208 284.359C431.547 285.961 430.866 287.541 430.174 289.099L458.27 301.634C459.081 299.822 459.87 297.989 460.635 296.135ZM455.097 308.43L427.451 294.922C426.697 296.467 425.928 297.987 425.143 299.482L452.385 313.785C453.308 312.025 454.212 310.239 455.097 308.43ZM448.778 320.354L422.093 305.037C421.251 306.504 420.393 307.944 419.524 309.355L445.716 325.502C446.754 323.814 447.778 322.098 448.778 320.354ZM441.654 331.798L416.147 314.591C415.216 315.97 414.274 317.318 413.32 318.634L438.22 336.707C439.385 335.102 440.531 333.465 441.654 331.798ZM433.681 342.673L409.624 323.493C408.608 324.769 407.578 326.008 406.543 327.212L429.851 347.296C431.151 345.791 432.428 344.25 433.681 342.673ZM424.82 352.85L402.551 331.619C401.454 332.767 400.354 333.875 399.247 334.943L420.593 357.102C422.02 355.725 423.431 354.307 424.82 352.85ZM415.054 362.149L394.989 338.822C393.828 339.82 392.662 340.776 391.489 341.69L410.42 365.949C411.981 364.728 413.528 363.461 415.054 362.149ZM404.37 370.37L387.016 344.962C385.801 345.792 384.585 346.576 383.365 347.315L399.331 373.618C401.028 372.587 402.708 371.505 404.37 370.37ZM392.793 377.279L378.729 349.912C377.479 350.555 376.228 351.152 374.976 351.703L387.385 379.859C389.204 379.057 391.008 378.197 392.793 377.279ZM380.418 382.613L370.241 353.576C368.97 354.022 367.698 354.422 366.426 354.777L374.702 384.413C376.623 383.875 378.529 383.275 380.418 382.613ZM367.41 386.125L361.631 355.904C360.35 356.149 359.065 356.35 357.776 356.507L361.49 387.052C363.476 386.809 365.45 386.502 367.41 386.125ZM354.023 387.636L352.931 356.887C352.282 356.91 351.631 356.922 350.978 356.923C350.324 356.924 349.673 356.914 349.024 356.892L348.011 387.644C349.01 387.679 350.013 387.694 351.017 387.694C352.022 387.69 353.024 387.671 354.023 387.636ZM340.543 387.079L344.179 356.524C342.889 356.371 341.603 356.173 340.322 355.932L334.62 386.167C336.581 386.536 338.556 386.84 340.543 387.079ZM327.324 384.475L335.524 354.817C334.251 354.464 332.978 354.067 331.706 353.625L321.603 382.69C323.494 383.348 325.402 383.94 327.324 384.475ZM314.629 379.952L326.966 351.765C325.713 351.217 324.46 350.623 323.208 349.983L309.213 377.386C311.001 378.299 312.806 379.155 314.629 379.952ZM302.666 373.741L318.566 347.398C317.346 346.662 316.127 345.881 314.91 345.054L297.621 370.507C299.284 371.637 300.966 372.715 302.666 373.741ZM291.561 366.1L310.426 341.794C309.253 340.883 308.084 339.93 306.921 338.934L286.916 362.312C288.445 363.621 289.993 364.884 291.561 366.1ZM281.363 357.28L302.654 335.067C301.543 334.001 300.438 332.896 299.341 331.751L277.124 353.039C278.517 354.493 279.931 355.907 281.363 357.28ZM272.079 347.498L295.338 327.354C294.297 326.153 293.267 324.916 292.246 323.643L268.236 342.885C269.497 344.458 270.778 345.996 272.079 347.498ZM263.683 336.93L288.539 318.793C287.581 317.48 286.634 316.135 285.7 314.758L260.236 332.03C261.365 333.695 262.514 335.328 263.683 336.93ZM256.16 325.744L282.311 309.531C281.437 308.122 280.577 306.684 279.731 305.219L253.084 320.605C254.089 322.345 255.115 324.059 256.16 325.744ZM249.46 314.045L276.666 299.672C275.878 298.179 275.104 296.661 274.344 295.117L246.734 308.697C247.623 310.504 248.531 312.287 249.46 314.045ZM243.543 301.909L271.61 289.301C270.911 287.745 270.228 286.167 269.56 284.567L241.164 296.415C241.936 298.268 242.729 300.099 243.543 301.909ZM238.393 289.456C237.688 287.597 237.002 285.719 236.337 283.822L265.373 273.64C265.952 275.293 266.549 276.926 267.161 278.54L238.393 289.456ZM233.965 276.707L263.301 267.425C262.776 265.767 262.268 264.09 261.776 262.397L232.226 270.97C232.785 272.899 233.365 274.812 233.965 276.707ZM230.245 263.748L260.035 256.046C259.596 254.349 259.175 252.638 258.771 250.911L228.811 257.925C229.269 259.881 229.748 261.822 230.245 263.748ZM227.205 250.598L257.35 244.433C256.998 242.708 256.662 240.971 256.344 239.22L226.07 244.716C226.428 246.689 226.807 248.65 227.205 250.598ZM224.833 237.329L255.246 232.66C254.978 230.91 254.726 229.147 254.493 227.374L223.986 231.387C224.249 233.378 224.531 235.359 224.833 237.329ZM223.108 223.937L253.71 220.736C253.525 218.974 253.359 217.202 253.21 215.42L222.547 217.981C222.714 219.976 222.901 221.962 223.108 223.937ZM222.021 210.504L252.739 208.739C252.637 206.958 252.553 205.169 252.486 203.371L221.738 204.504C221.812 206.512 221.906 208.512 222.021 210.504Z" fill="url(#paint0_linear)"/>
<path fill-rule="evenodd" clip-rule="evenodd" d="M249.894 110.602C234.353 131.732 224.574 161.202 224.616 194.01C224.658 226.818 234.512 256.263 250.108 277.353C265.705 298.446 286.733 310.854 309.381 310.825C332.031 310.796 353.026 298.334 368.569 277.202C384.111 256.072 393.889 226.601 393.847 193.793C393.805 160.986 383.952 131.541 368.356 110.45C352.759 89.3575 331.731 76.9498 309.082 76.9786C286.433 77.0075 265.438 89.469 249.894 110.602ZM239.98 103.309C257.231 79.8544 281.585 64.7063 309.066 64.671C336.548 64.636 360.94 79.7217 378.252 103.132C395.566 126.545 406.108 158.612 406.154 193.777C406.201 228.943 395.735 261.037 378.484 284.494C361.233 307.949 336.879 323.097 309.397 323.132C281.916 323.167 257.523 308.082 240.212 284.671C222.899 261.259 212.354 229.191 212.309 194.026C212.264 158.86 222.726 126.766 239.98 103.309Z" fill="url(#paint1_linear)"/>
<path fill-rule="evenodd" clip-rule="evenodd" d="M113.666 110.693C98.6491 131.827 89.1888 161.327 89.2307 194.182C89.273 227.038 98.8088 256.512 113.88 277.609C128.961 298.717 149.213 311.029 170.919 311.001C192.624 310.973 212.845 298.609 227.872 277.462C242.89 256.328 252.35 226.829 252.308 193.974C252.266 161.118 242.73 131.643 227.658 110.547C212.578 89.439 192.325 77.1271 170.62 77.1552C148.914 77.1829 128.693 89.5463 113.666 110.693ZM103.634 103.564C120.289 80.1256 143.878 64.8817 170.604 64.8475C197.33 64.8132 220.958 79.9967 237.673 103.393C254.397 126.802 264.57 158.84 264.615 193.958C264.66 229.076 254.569 261.14 237.905 284.592C221.25 308.03 197.66 323.274 170.935 323.309C144.209 323.343 120.58 308.159 103.866 284.763C87.1418 261.354 76.968 229.316 76.923 194.198C76.8784 159.08 86.9699 127.016 103.634 103.564Z" fill="url(#paint2_linear)"/>
<path fill-rule="evenodd" clip-rule="evenodd" d="M258.45 196.976L227.682 196.704C227.69 195.806 227.694 194.907 227.692 194.006C227.691 193.104 227.685 192.205 227.675 191.307L258.442 190.956C258.454 191.957 258.46 192.961 258.462 193.966C258.463 194.971 258.459 195.975 258.45 196.976ZM258.262 183.473L227.514 184.606C227.447 182.809 227.363 181.019 227.261 179.239L257.979 177.474C258.094 179.465 258.188 181.465 258.262 183.473ZM257.453 169.997C257.286 168.002 257.099 166.016 256.892 164.04L226.29 167.241C226.475 169.004 226.641 170.776 226.79 172.557L257.453 169.997ZM256.014 156.591L225.507 160.604C225.274 158.83 225.022 157.068 224.754 155.317L255.167 150.649C255.469 152.618 255.751 154.599 256.014 156.591ZM253.93 143.261L223.655 148.757C223.338 147.007 223.002 145.269 222.65 143.545L252.795 137.38C253.193 139.327 253.572 141.288 253.93 143.261ZM251.189 130.052L221.229 137.066C220.825 135.34 220.404 133.628 219.965 131.931L249.755 124.229C250.252 126.156 250.73 128.097 251.189 130.052ZM247.774 117.007L218.224 125.581C217.732 123.887 217.224 122.211 216.699 120.552L246.035 111.271C246.635 113.166 247.215 115.078 247.774 117.007ZM243.663 104.155L214.627 114.338C214.048 112.685 213.451 111.051 212.839 109.437L241.607 98.5217C242.312 100.381 242.998 102.259 243.663 104.155ZM238.836 91.5621L210.44 103.41C209.772 101.81 209.089 100.232 208.39 98.6763L236.457 86.0686C237.27 87.8783 238.064 89.7098 238.836 91.5621ZM233.266 79.281L205.655 92.8602C204.896 91.3167 204.122 89.7986 203.334 88.3056L230.539 73.9329C231.469 75.691 232.377 77.474 233.266 79.281ZM226.915 67.3729L200.269 82.7586C199.423 81.2933 198.563 79.8556 197.689 78.4467L223.84 62.2333C224.885 63.9186 225.91 65.6321 226.915 67.3729ZM219.764 55.9475L194.3 73.2198C193.366 71.8425 192.419 70.4975 191.461 69.184L216.317 51.0471C217.485 52.6494 218.635 54.2829 219.764 55.9475ZM211.764 45.0925L187.754 64.3344C186.733 63.0613 185.703 61.8244 184.662 60.6233L207.921 40.4798C209.222 41.9813 210.503 43.5194 211.764 45.0925ZM202.876 34.939L180.659 56.2263C179.562 55.0817 178.457 53.9767 177.346 52.9109L198.637 30.6972C200.069 32.0703 201.483 33.4846 202.876 34.939ZM193.084 25.6652L173.079 49.0433C171.915 48.0475 170.747 47.0944 169.574 46.184L188.439 21.8771C190.007 23.0935 191.555 24.3567 193.084 25.6652ZM182.379 17.4705L165.09 42.9233C163.873 42.0967 162.654 41.3156 161.434 40.5794L177.334 14.2362C179.034 15.2622 180.715 16.3407 182.379 17.4705ZM170.787 10.5918L156.792 37.994C155.54 37.3544 154.287 36.761 153.034 36.2129L165.371 8.02522C167.194 8.82268 168.999 9.67864 170.787 10.5918ZM158.397 5.28906L148.294 34.3522C147.022 33.9101 145.749 33.5132 144.476 33.1611L152.676 3.50476C154.598 4.03622 156.505 4.63153 158.397 5.28906ZM145.38 1.8097C143.419 1.43988 141.444 1.13596 139.457 0.89948L135.821 31.4531C137.111 31.6066 138.397 31.8044 139.678 32.0459L145.38 1.8097ZM131.989 0.33303L130.975 31.0856C130.327 31.0642 129.676 31.0538 129.022 31.0547C128.369 31.0555 127.718 31.0675 127.069 31.0906L125.977 0.340722C126.976 0.305238 127.978 0.286757 128.983 0.285472C129.987 0.284188 130.99 0.300103 131.989 0.33303ZM118.51 0.926272L122.225 31.4705C120.935 31.6273 119.65 31.8284 118.369 32.0732L112.59 1.85165C114.55 1.47681 116.524 1.16785 118.51 0.926272ZM105.298 3.56533L113.574 33.2006C112.302 33.5559 111.03 33.9561 109.76 34.4015L99.5816 5.3643C101.472 4.70191 103.377 4.10176 105.298 3.56533ZM92.6143 8.1183L105.024 36.2743C103.772 36.8256 102.521 37.4225 101.27 38.0652L87.2054 10.6987C88.9912 9.78103 90.7943 8.92041 92.6143 8.1183ZM80.6681 14.3599L96.6347 40.6621C95.4166 41.4017 94.1997 42.1859 92.9851 43.0156L75.6312 17.6071C77.2916 16.473 78.9708 15.3902 80.6681 14.3599ZM69.582 22.0291L88.5097 46.2879C87.3393 47.2009 86.1727 48.1571 85.0116 49.156L64.9466 25.8291C66.4724 24.5167 68.0177 23.2496 69.582 22.0291ZM59.4074 30.8753L80.7547 53.0344C79.6458 54.1029 78.5439 55.2109 77.4501 56.3586L55.1785 35.1279C56.5685 33.67 57.9781 32.2521 59.4074 30.8753ZM50.1477 40.6813L73.4581 60.7656C72.4208 61.9694 71.3935 63.209 70.3766 64.4848L46.317 45.3044C47.5739 43.7279 48.8508 42.1867 50.1477 40.6813ZM41.7793 51.2706L66.6812 69.344C65.7266 70.6594 64.7831 72.0071 63.8528 73.3867L38.3447 56.1798C39.4693 54.5121 40.6147 52.8756 41.7793 51.2706ZM34.2844 62.4756L60.4766 78.6225C59.6066 80.0333 58.7501 81.4733 57.9077 82.941L31.2222 67.6233C32.2227 65.8798 33.2437 64.164 34.2844 62.4756ZM27.6151 74.1925L54.8578 88.4956C54.0728 89.9906 53.3028 91.5106 52.5478 93.056L24.9021 79.5475C25.7862 77.7383 26.6907 75.9529 27.6151 74.1925ZM21.7282 86.3433L49.8281 98.879C49.1331 100.437 48.4535 102.016 47.7904 103.618L19.3633 91.8429C20.1314 89.9886 20.9199 88.1552 21.7282 86.3433ZM16.6106 98.8094L45.4062 109.651C44.7981 111.267 44.2058 112.902 43.6304 114.557L14.5691 104.448C15.2293 102.55 15.91 100.67 16.6106 98.8094ZM12.2153 111.569L41.5747 120.776C41.0543 122.436 40.5501 124.114 40.0631 125.809L10.4908 117.311C11.0454 115.381 11.6204 113.467 12.2153 111.569ZM8.52882 124.538L38.3381 132.164C37.9038 133.862 37.4866 135.574 37.0867 137.302L7.10982 130.364C7.56263 128.408 8.03575 126.466 8.52882 124.538ZM5.52221 137.696L35.6831 143.784C35.3349 145.509 35.0039 147.248 34.6907 148.999L4.40225 143.581C4.7554 141.606 5.12886 139.645 5.52221 137.696ZM3.18418 150.971L33.6091 155.562C33.3448 157.313 33.0982 159.076 32.8695 160.85L2.35282 156.916C2.60969 154.923 2.88693 152.942 3.18418 150.971ZM1.49275 164.367L32.1031 167.49C31.9232 169.252 31.7611 171.025 31.6168 172.807L0.947878 170.325C1.10938 168.329 1.29111 166.343 1.49275 164.367ZM0.440312 177.804L31.1633 179.49C31.0656 181.271 30.9857 183.06 30.9241 184.858L0.172928 183.804C0.24177 181.795 0.331001 179.795 0.440312 177.804ZM0.0116582 191.286C0.00277433 192.288 -0.00104298 193.292 0.000243172 194.297C0.00152933 195.302 0.00791434 196.306 0.0193609 197.307L30.7866 196.956C30.7763 196.058 30.7706 195.159 30.7694 194.257C30.7683 193.356 30.7717 192.457 30.7797 191.559L0.0116582 191.286ZM0.199774 204.789L30.9481 203.657C31.0144 205.454 31.0988 207.243 31.2011 209.024L0.482512 210.789C0.368105 208.797 0.273759 206.797 0.199774 204.789ZM1.00922 218.266L31.6717 215.706C31.8205 217.487 31.9872 219.259 32.1716 221.021L1.56933 224.223C1.36263 222.247 1.17582 220.261 1.00922 218.266ZM2.44845 231.672L32.9549 227.659C33.1882 229.433 33.4393 231.195 33.7081 232.946L3.29502 237.614C2.99274 235.644 2.71043 233.664 2.44845 231.672ZM4.53202 245.001L34.8065 239.506C35.1242 241.256 35.4596 242.994 35.8123 244.718L5.66702 250.883C5.26867 248.936 4.89021 246.975 4.53202 245.001ZM7.27336 258.211L37.2325 251.197C37.6367 252.923 38.0583 254.635 38.497 256.331L8.70732 264.034C8.20929 262.107 7.73121 260.166 7.27336 258.211ZM10.6877 271.256L40.2385 262.683C40.7297 264.376 41.2377 266.052 41.7627 267.711L12.4269 276.992C11.8272 275.097 11.2473 273.184 10.6877 271.256ZM14.7989 284.107L43.8343 273.925C44.4143 275.578 45.0104 277.212 45.6228 278.826L16.8548 289.741C16.1495 287.883 15.4641 286.004 14.7989 284.107ZM19.6254 296.701L48.022 284.853C48.6897 286.453 49.3731 288.031 50.072 289.587L22.0043 302.194C21.1914 300.385 20.3983 298.553 19.6254 296.701ZM25.1957 308.982L52.8066 295.403C53.5654 296.946 54.3397 298.464 55.1281 299.957L27.9223 314.33C26.9934 312.572 26.0844 310.789 25.1957 308.982ZM31.5462 320.89L58.1924 305.504C59.0385 306.97 59.8989 308.407 60.7724 309.816L34.6216 326.03C33.5766 324.344 32.5513 322.631 31.5462 320.89ZM38.6978 332.315L64.162 315.043C65.0962 316.42 66.0427 317.766 67.0008 319.079L42.1454 337.216C40.9762 335.614 39.827 333.98 38.6978 332.315ZM46.6981 343.17L70.7085 323.929C71.7285 325.201 72.7593 326.439 73.7993 327.64L50.5404 347.783C49.2401 346.282 47.9589 344.744 46.6981 343.17ZM55.5858 353.324L77.8027 332.037C78.8993 333.181 80.0043 334.286 81.1158 335.352L59.8254 357.566C58.3927 356.193 56.9793 354.778 55.5858 353.324ZM65.3774 362.598L85.3828 339.22C86.5466 340.216 87.7154 341.169 88.8881 342.079L70.0224 366.386C68.4551 365.169 66.9066 363.906 65.3774 362.598ZM76.0831 370.792L93.372 345.34C94.5885 346.166 95.8074 346.947 97.0274 347.684L81.1281 374.027C79.4281 373.001 77.7462 371.922 76.0831 370.792ZM87.6751 377.671L101.67 350.269C102.922 350.908 104.175 351.502 105.427 352.05L93.0904 380.238C91.2685 379.44 89.4631 378.584 87.6751 377.671ZM100.065 382.975L110.168 353.911C111.44 354.353 112.713 354.75 113.986 355.102L105.786 384.759C103.864 384.225 101.956 383.633 100.065 382.975ZM113.082 386.452L118.784 356.217C120.065 356.459 121.35 356.656 122.641 356.81L119.005 387.363C117.017 387.129 115.043 386.825 113.082 386.452ZM126.473 387.929L127.487 357.177C128.135 357.199 128.786 357.209 129.44 357.208C130.093 357.207 130.744 357.196 131.392 357.172L132.485 387.921C131.485 387.959 130.484 387.975 129.479 387.979C128.474 387.979 127.472 387.963 126.473 387.929ZM139.952 387.336L136.237 356.792C137.527 356.636 138.812 356.434 140.092 356.19L145.872 386.409C143.912 386.786 141.938 387.094 139.952 387.336ZM153.164 384.698L144.888 355.062C146.16 354.707 147.432 354.307 148.702 353.861L158.88 382.898C156.99 383.559 155.085 384.159 153.164 384.698ZM165.847 380.145L153.439 351.989C154.689 351.437 155.941 350.841 157.192 350.198L171.256 377.564C169.471 378.482 167.667 379.343 165.847 380.145ZM177.794 373.903L161.827 347.601C163.045 346.861 164.262 346.077 165.477 345.247L182.83 370.656C181.17 371.79 179.491 372.873 177.794 373.903ZM188.88 366.234L169.952 341.975C171.123 341.062 172.289 340.106 173.45 339.107L193.515 362.434C191.99 363.746 190.444 365.013 188.88 366.234ZM199.054 357.387L177.707 335.228C178.816 334.16 179.918 333.052 181.012 331.904L203.283 353.135C201.894 354.593 200.484 356.011 199.054 357.387ZM208.314 347.581L185.004 327.497C186.041 326.294 187.069 325.054 188.085 323.778L212.145 342.959C210.888 344.535 209.611 346.076 208.314 347.581ZM216.682 336.992L191.78 318.919C192.735 317.604 193.679 316.256 194.609 314.876L220.117 332.083C218.992 333.751 217.847 335.387 216.682 336.992ZM224.177 325.787L197.985 309.641C198.855 308.229 199.712 306.79 200.554 305.322L227.24 320.64C226.239 322.383 225.218 324.099 224.177 325.787ZM230.847 314.071L203.604 299.767C204.389 298.272 205.159 296.752 205.914 295.207L233.56 308.715C232.675 310.524 231.771 312.31 230.847 314.071ZM236.734 301.92L208.634 289.384C209.329 287.826 210.008 286.246 210.672 284.645L239.099 296.42C238.33 298.274 237.542 300.108 236.734 301.92ZM241.851 289.453L213.055 278.612C213.664 276.996 214.256 275.361 214.831 273.706L243.893 283.814C243.232 285.713 242.552 287.593 241.851 289.453ZM246.247 276.693L216.887 267.487C217.408 265.826 217.912 264.149 218.399 262.454L247.971 270.952C247.416 272.883 246.841 274.796 246.247 276.693ZM249.933 263.725L220.124 256.099C220.558 254.401 220.975 252.689 221.375 250.961L251.352 257.899C250.899 259.855 250.426 261.797 249.933 263.725ZM252.94 250.567L222.779 244.479C223.127 242.754 223.458 241.015 223.771 239.264L254.06 244.682C253.706 246.656 253.333 248.618 252.94 250.567ZM255.278 237.291L224.853 232.701C225.117 230.95 225.364 229.187 225.592 227.413L256.109 231.347C255.852 233.34 255.575 235.321 255.278 237.291ZM256.969 223.896L226.359 220.773C226.539 219.011 226.701 217.238 226.845 215.456L257.514 217.938C257.352 219.934 257.171 221.92 256.969 223.896ZM258.022 210.459L227.299 208.773C227.396 206.992 227.476 205.203 227.538 203.405L258.289 204.459C258.22 206.467 258.131 208.468 258.022 210.459Z" fill="url(#paint3_linear)"/>
<path d="M240.134 298.606C297.911 298.532 344.689 251.634 344.615 193.857C344.541 136.08 297.644 89.3015 239.866 89.3753C182.089 89.4496 135.311 136.347 135.385 194.125C135.459 251.902 182.356 298.68 240.134 298.606Z" fill="url(#paint4_linear)"/>
<defs>
<linearGradient id="paint0_linear" x1="394.178" y1="82.8235" x2="387.085" y2="315.447" gradientUnits="userSpaceOnUse">
<stop stop-color="#A88CFF"/>
<stop offset="1" stop-color="#6754D6"/>
</linearGradient>
<linearGradient id="paint1_linear" x1="270.428" y1="123.496" x2="275.985" y2="271.174" gradientUnits="userSpaceOnUse">
<stop stop-color="#A88CFF"/>
<stop offset="1" stop-color="#6754D6"/>
</linearGradient>
<linearGradient id="paint2_linear" x1="135.615" y1="123.667" x2="141.013" y2="271.344" gradientUnits="userSpaceOnUse">
<stop stop-color="#A88CFF"/>
<stop offset="1" stop-color="#6754D6"/>
</linearGradient>
<linearGradient id="paint3_linear" x1="85.5393" y1="83.2202" x2="93.2266" y2="315.824" gradientUnits="userSpaceOnUse">
<stop stop-color="#A88CFF"/>
<stop offset="1" stop-color="#6754D6"/>
</linearGradient>
<linearGradient id="paint4_linear" x1="160.601" y1="134.205" x2="166.747" y2="259.806" gradientUnits="userSpaceOnUse">
<stop stop-color="#9D7DFF"/>
<stop offset="1" stop-color="#6754D6"/>
</linearGradient>
</defs>
</svg>
